<svg xmlns="http://www.w3.org/2000/svg" viewBox="0 0 24 24" width="24" height="24" fill="none" stroke="currentColor" stroke-width="1.75" stroke-linecap="round" stroke-linejoin="round"><rect x="8" y="8" width="8" height="8" rx="1" fill="none"/><line x1="10.00" y1="8.00" x2="10.00" y2="5.80"/><line x1="10.00" y1="16.00" x2="10.00" y2="18.20"/><line x1="8.00" y1="10.00" x2="5.80" y2="10.00"/><line x1="16.00" y1="10.00" x2="18.20" y2="10.00"/><line x1="12.00" y1="8.00" x2="12.00" y2="5.80"/><line x1="12.00" y1="16.00" x2="12.00" y2="18.20"/><line x1="8.00" y1="12.00" x2="5.80" y2="12.00"/><line x1="16.00" y1="12.00" x2="18.20" y2="12.00"/><line x1="14.00" y1="8.00" x2="14.00" y2="5.80"/><line x1="14.00" y1="16.00" x2="14.00" y2="18.20"/><line x1="8.00" y1="14.00" x2="5.80" y2="14.00"/><line x1="16.00" y1="14.00" x2="18.20" y2="14.00"/><path d="M12 10.2v3.2"/><path d="M10.5 11.9 12 13.4l1.5-1.5"/></svg>